<svg xmlns="http://www.w3.org/2000/svg" viewBox="0 0 400 400" style="enable-background:new 0 0 400 400" xml:space="preserve"><path d="M186.6 315.7h-.8c-.5 0-1.1 0-1.7-.1h-.4c-.1 0-.3 0-.4-.1-2.5-.1-5-.4-6.4-.5-.1 0-.3 0-.4-.1h-.7l-.7-3.7h-1.6l-.6 2.8-.7.5h-9.3l-.8-.7-.7-2.7h-1.7l-.3 1.6-1 .5-30.7-2.5-6.3-3.4s0-2.6.3-6.2v-.8c.2-2.7.6-5.8 1.2-8.6 1.5-7.1 4.5-15.6 22.7-41.7s24.5-35.7 37.2-82.3c.2-.9.4-1.7.6-2.5 3.8-15.8 6.5-25 7.5-28.4V69.3c.1-7.9.8-15.5 1.8-22.5 1.1-7.4 2.5-13.9 3.8-19.1-93.6 1.8-169 78.2-169 172.3 0 94.8 76.4 171.6 170.9 172.4-3.8-14.6-5.8-38-6.7-54.1 0-.2-1.2-2.6-5.1-2.6zM213.3 315.7h.8c.5 0 1.1 0 1.7-.1h.4c.1 0 .3 0 .4-.1 2.5-.1 5-.4 6.4-.5.2 0 .3 0 .4-.1H224l.7-3.7h1.6l.6 2.8.6.5h9.3l.7-.7.7-2.7h1.7l.3 1.6 1 .5 30.7-2.5 6.3-3.4s0-2.6-.3-6.2v-.4c0-.2 0-.3-.1-.4-.2-2.7-.5-5.8-1.2-8.6-1.5-7.1-4.4-15.6-22.7-41.7s-24.5-35.7-37.2-82.3c-.2-.9-.4-1.7-.6-2.5-3.8-15.8-6.5-25-7.5-28.4V69.3c-.1-7.9-.8-15.5-1.8-22.5-1.1-7.4-2.5-13.9-3.7-19.1 93.6 1.8 169 78.2 169 172.3 0 94.8-76.4 171.6-170.9 172.4 3.8-14.6 5.8-38 6.7-54.1.3-.2 1.5-2.6 5.4-2.6z"/><path d="M199.9 396.8C91.5 396.8 3.3 308.5 3.3 200.1 3.3 91.7 91.5 3.4 199.9 3.4s196.7 88.2 196.7 196.7c0 108.4-88.2 196.7-196.7 196.7zm0-384.3C96.5 12.5 12.3 96.6 12.3 200.1c0 103.4 84.1 187.6 187.6 187.6 103.4 0 187.6-84.2 187.6-187.6 0-103.5-84.1-187.6-187.6-187.6z"/></svg>